<svg version="1.1" viewBox="0.0 0.0 960.0 720.0" fill="none" stroke="none" stroke-linecap="square" stroke-miterlimit="10" xmlns:xlink="http://www.w3.org/1999/xlink" xmlns="http://www.w3.org/2000/svg"><clipPath id="p.0"><path d="m0 0l960.0 0l0 720.0l-960.0 0l0 -720.0z" clip-rule="nonzero"/></clipPath><g clip-path="url(#p.0)"><path fill="#000000" fill-opacity="0.0" d="m0 0l960.0 0l0 720.0l-960.0 0z" fill-rule="evenodd"/><path fill="#666666" d="m336.0 325.7978l38.58667 -59.2334l66.82666 -34.202194l77.17334 0l66.82666 34.202194l38.58667 59.2334l0 68.40442l-38.58667 59.2334l-66.82666 34.20218l-77.17334 0l-66.82666 -34.20218l-38.58667 -59.2334z" fill-rule="evenodd"/><path stroke="#000000" stroke-width="1.0" stroke-linejoin="round" stroke-linecap="butt" d="m336.0 325.7978l38.58667 -59.2334l66.82666 -34.202194l77.17334 0l66.82666 34.202194l38.58667 59.2334l0 68.40442l-38.58667 59.2334l-66.82666 34.20218l-77.17334 0l-66.82666 -34.20218l-38.58667 -59.2334z" fill-rule="evenodd"/><path fill="#b7b7b7" d="m432.0 228.0l-58.908142 30.545929l-44.72702 68.72705l3.2703247 68.72702l38.183746 58.908142l60.0 37.091858l-423.27298 223.6352l-1.0918636 -712.36224z" fill-rule="evenodd"/><path stroke="#000000" stroke-width="1.0" stroke-linejoin="round" stroke-linecap="butt" d="m432.0 228.0l-58.908142 30.545929l-44.72702 68.72705l3.2703247 68.72702l38.183746 58.908142l60.0 37.091858l-423.27298 223.6352l-1.0918636 -712.36224z" fill-rule="evenodd"/><path fill="#b7b7b7" d="m440.72702 223.63518l77.45407 0l435.27295 -220.36221l-930.5459 0z" fill-rule="evenodd"/><path stroke="#000000" stroke-width="1.0" stroke-linejoin="round" stroke-linecap="butt" d="m440.72702 223.63518l77.45407 0l435.27295 -220.36221l-930.5459 0z" fill-rule="evenodd"/><path fill="#b7b7b7" d="m526.86444 490.9211l58.914062 -30.549011l44.731506 -68.73389l-3.270691 -68.73392l-38.18756 -58.914032l-60.00598 -37.095566l423.3153 -223.65753l1.09198 712.4334z" fill-rule="evenodd"/><path stroke="#000000" stroke-width="1.0" stroke-linejoin="round" stroke-linecap="butt" d="m526.86444 490.9211l58.914062 -30.549011l44.731506 -68.73389l-3.270691 -68.73392l-38.18756 -58.914032l-60.00598 -37.095566l423.3153 -223.65753l1.09198 712.4334z" fill-rule="evenodd"/><path fill="#b7b7b7" d="m527.45404 496.36484l-77.45404 0l-435.27298 220.36221l930.5459 0z" fill-rule="evenodd"/><path stroke="#000000" stroke-width="1.0" stroke-linejoin="round" stroke-linecap="butt" d="m527.45404 496.36484l-77.45404 0l-435.27298 220.36221l930.5459 0z" fill-rule="evenodd"/><path fill="#e6b8af" d="m13.091864 704.72705l2.1811018 -177.81891l12.000001 38.183716l11.999998 -13.091858" fill-rule="evenodd"/><path stroke="#000000" stroke-width="1.0" stroke-linejoin="round" stroke-linecap="butt" d="m13.091864 704.72705l2.1811018 -177.81891l12.000001 38.183716l11.999998 -13.091858" fill-rule="evenodd"/><path fill="#e6b8af" d="m22.908136 694.90814l25.091864 -184.36221l21.818901 -14.181091l-15.272968 52.362213l75.272964 86.18109z" fill-rule="evenodd"/><path stroke="#000000" stroke-width="1.0" stroke-linejoin="round" stroke-linecap="butt" d="m22.908136 694.90814l25.091864 -184.36221l21.818901 -14.181091l-15.272968 52.362213l75.272964 86.18109z" fill-rule="evenodd"/><path fill="#e6b8af" d="m138.54593 629.45404l-75.272964 -80.72699l49.091866 3.2729492l-45.8189 -79.63516l87.272964 92.72702l-73.09186 -149.4567l123.272964 169.09189l-9.818893 -42.54596l26.183716 20.72705l-13.091858 -82.90814l-56.727036 -10.908142l-70.91076 -142.91077l81.8189 45.81891l-63.272972 -88.36484l139.63779 127.63782l-74.183716 7.6351624l91.63779 55.637787l-24.0 74.18112l54.545944 -3.2730103l-27.27298 -24.0l41.45407 0l-36.0 -69.81888l-46.908142 -19.635162l49.089233 4.3648376l1.0918884 -50.183746l-136.36484 -99.27295l164.72702 67.63779l-212.72702 -135.27296l221.4567 94.90813l-170.18373 -130.90813l20.727036 -82.908134l2.1837158 81.81628l66.54332 5.454071l-40.362213 -22.908142l67.63518 21.818893l-27.272964 17.454071l56.72966 0l4.3621826 65.45407l14.181122 -84.0l-55.635178 -30.545929l171.27296 68.727036l-50.18109 31.637787l-40.364838 66.545944l-6.545929 46.90811l9.818909 33.81891l38.18109 54.54593l53.45407 32.72705z" fill-rule="evenodd"/><path stroke="#000000" stroke-width="1.0" stroke-linejoin="round" stroke-linecap="butt" d="m138.54593 629.45404l-75.272964 -80.72699l49.091866 3.2729492l-45.8189 -79.63516l87.272964 92.72702l-73.09186 -149.4567l123.272964 169.09189l-9.818893 -42.54596l26.183716 20.72705l-13.091858 -82.90814l-56.727036 -10.908142l-70.91076 -142.91077l81.8189 45.81891l-63.272972 -88.36484l139.63779 127.63782l-74.183716 7.6351624l91.63779 55.637787l-24.0 74.18112l54.545944 -3.2730103l-27.27298 -24.0l41.45407 0l-36.0 -69.81888l-46.908142 -19.635162l49.089233 4.3648376l1.0918884 -50.183746l-136.36484 -99.27295l164.72702 67.63779l-212.72702 -135.27296l221.4567 94.90813l-170.18373 -130.90813l20.727036 -82.908134l2.1837158 81.81628l66.54332 5.454071l-40.362213 -22.908142l67.63518 21.818893l-27.272964 17.454071l56.72966 0l4.3621826 65.45407l14.181122 -84.0l-55.635178 -30.545929l171.27296 68.727036l-50.18109 31.637787l-40.364838 66.545944l-6.545929 46.90811l9.818909 33.81891l38.18109 54.54593l53.45407 32.72705z" fill-rule="evenodd"/><path fill="#e6b8af" d="m949.09186 703.6352l-5.456665 -53.4541l-5.4541016 39.27295l-4.3621826 -78.5459l-14.183716 31.637817l-19.635193 -54.54596l41.45404 -3.2729492l1.091919 -64.36224l-38.181152 56.72705l8.727051 -72.0l-32.72705 98.18109l31.635193 44.72705l-41.45404 -9.818909l-3.2730103 -38.18109l-7.6377563 32.72705l-4.3622437 -73.09186l60.0 -96.00003l-81.81891 96.00003l14.181152 43.637756l-27.270386 -37.091858l2.1811523 44.72705l-29.454102 -51.27295l86.18109 -117.816284l-92.72699 80.72705l-7.6378174 50.18109l-1.0892334 -156.00003l-29.454102 169.09189l14.181152 -174.54593l74.18109 -19.637817l-86.18109 7.6378174l122.18109 -55.637817l-62.18109 -81.81625l36.0 75.27295l-82.91077 -3.2729492l15.272949 36.0l-53.4541 2.1810913l20.72705 96.0l-33.816284 100.36481l2.1811523 -79.63779l-16.364868 70.90817l6.5459595 -113.4541l-14.181091 18.545929l31.635132 -122.18109l64.36487 -34.910767l-140.72705 58.910767l105.816284 -82.91077l-54.543335 6.545929l124.36218 -94.90813l-112.36218 55.635178l159.27295 -114.54332l14.181152 43.635178l-13.091919 -100.36483l-19.635132 38.18373l-1.0918579 -41.45407l-57.81891 95.99999l-2.1810913 -32.729645l-137.4541 110.183716l103.63519 -117.81889l-110.18109 94.90814l24.0 -58.908142l-118.90814 57.818893l49.089233 39.272964l33.81891 56.72705l3.2729492 75.27295l-48.0 70.90814l-45.81891 22.908142z" fill-rule="evenodd"/><path stroke="#000000" stroke-width="1.0" stroke-linejoin="round" stroke-linecap="butt" d="m949.09186 703.6352l-5.456665 -53.4541l-5.4541016 39.27295l-4.3621826 -78.5459l-14.183716 31.637817l-19.635193 -54.54596l41.45404 -3.2729492l1.091919 -64.36224l-38.181152 56.72705l8.727051 -72.0l-32.72705 98.18109l31.635193 44.72705l-41.45404 -9.818909l-3.2730103 -38.18109l-7.6377563 32.72705l-4.3622437 -73.09186l60.0 -96.00003l-81.81891 96.00003l14.181152 43.637756l-27.270386 -37.091858l2.1811523 44.72705l-29.454102 -51.27295l86.18109 -117.816284l-92.72699 80.72705l-7.6378174 50.18109l-1.0892334 -156.00003l-29.454102 169.09189l14.181152 -174.54593l74.18109 -19.637817l-86.18109 7.6378174l122.18109 -55.637817l-62.18109 -81.81625l36.0 75.27295l-82.91077 -3.2729492l15.272949 36.0l-53.4541 2.1810913l20.72705 96.0l-33.816284 100.36481l2.1811523 -79.63779l-16.364868 70.90817l6.5459595 -113.4541l-14.181091 18.545929l31.635132 -122.18109l64.36487 -34.910767l-140.72705 58.910767l105.816284 -82.91077l-54.543335 6.545929l124.36218 -94.90813l-112.36218 55.635178l159.27295 -114.54332l14.181152 43.635178l-13.091919 -100.36483l-19.635132 38.18373l-1.0918579 -41.45407l-57.81891 95.99999l-2.1810913 -32.729645l-137.4541 110.183716l103.63519 -117.81889l-110.18109 94.90814l24.0 -58.908142l-118.90814 57.818893l49.089233 39.272964l33.81891 56.72705l3.2729492 75.27295l-48.0 70.90814l-45.81891 22.908142z" fill-rule="evenodd"/><path fill="#fce5cd" d="m444.0 218.1811l-6.545929 -25.089249l-45.81891 -31.637787l25.091858 38.181107l-41.45404 -25.089249l3.2729492 -33.818893l62.18109 45.818893l-81.81888 -97.09186l41.456696 25.091858l-18.545929 -81.81889l58.90811 134.1811l0 -100.36221l15.27298 140.72704l54.54593 -185.45407l-41.45407 184.36221l117.816284 -185.45407l48.0 34.908134l-51.27295 -15.27034l-99.270355 165.81628l103.63516 -147.27296l-78.54593 149.45668l170.18112 -190.91075l-8.727051 36.0l30.545898 -41.454067l-9.818848 33.818897l24.0 -1.0918617l-192.0 165.8189l174.5459 -126.54593l-178.90814 135.27296z" fill-rule="evenodd"/><path stroke="#000000" stroke-width="1.0" stroke-linejoin="round" stroke-linecap="butt" d="m444.0 218.1811l-6.545929 -25.089249l-45.81891 -31.637787l25.091858 38.181107l-41.45404 -25.089249l3.2729492 -33.818893l62.18109 45.818893l-81.81888 -97.09186l41.456696 25.091858l-18.545929 -81.81889l58.90811 134.1811l0 -100.36221l15.27298 140.72704l54.54593 -185.45407l-41.45407 184.36221l117.816284 -185.45407l48.0 34.908134l-51.27295 -15.27034l-99.270355 165.81628l103.63516 -147.27296l-78.54593 149.45668l170.18112 -190.91075l-8.727051 36.0l30.545898 -41.454067l-9.818848 33.818897l24.0 -1.0918617l-192.0 165.8189l174.5459 -126.54593l-178.90814 135.27296z" fill-rule="evenodd"/><path fill="#ffff00" d="m379.63516 448.36484l0 -49.091858l16.364838 50.18109l-14.181091 -77.45407l27.27295 25.091858l-29.456696 -56.72702l58.910767 87.270325l-26.181091 -104.72702l54.543304 142.91077l-4.362213 -58.910767l14.181091 40.364838l-19.635162 -127.63782l30.543304 69.81891l19.637817 -98.18109l14.181061 58.90811l-21.818878 26.183746l62.183746 -61.091858l-69.81891 97.09186l85.09186 -58.910767l-79.63779 91.63779l103.63779 -94.91077l-87.27295 103.63782l67.63513 -31.637817l-10.908081 28.364838l-10.910767 0l-3.2703857 12.0l-37.091858 16.362213l-19.637787 3.2729492l-55.635162 -1.0892334z" fill-rule="evenodd"/><path stroke="#000000" stroke-width="1.0" stroke-linejoin="round" stroke-linecap="butt" d="m379.63516 448.36484l0 -49.091858l16.364838 50.18109l-14.181091 -77.45407l27.27295 25.091858l-29.456696 -56.72702l58.910767 87.270325l-26.181091 -104.72702l54.543304 142.91077l-4.362213 -58.910767l14.181091 40.364838l-19.635162 -127.63782l30.543304 69.81891l19.637817 -98.18109l14.181061 58.90811l-21.818878 26.183746l62.183746 -61.091858l-69.81891 97.09186l85.09186 -58.910767l-79.63779 91.63779l103.63779 -94.91077l-87.27295 103.63782l67.63513 -31.637817l-10.908081 28.364838l-10.910767 0l-3.2703857 12.0l-37.091858 16.362213l-19.637787 3.2729492l-55.635162 -1.0892334z" fill-rule="evenodd"/></g></svg>